<svg id="Capa_1" data-name="Capa 1" xmlns="http://www.w3.org/2000/svg" viewBox="0 0 1000 1000"><defs><style>.cls-1{fill:#6d897b;}.cls-2{fill:#fefefe;}</style></defs><path class="cls-1" d="M632.32,590.49c-18.25-18.62-27-42.1-33.49-66.56a161.75,161.75,0,0,0-17.56-41.69c-1.37-2.3-3.22-4.59-1-7.24s4.92-1.34,7.35-.35c12.08,4.92,20.19,14.47,27.86,24.37,17.2,22.21,28.78,47.44,39.05,73.35,3.24,8.2,6.54,16.38,9.39,24.72,1.16,3.4,3.06,4.49,6.37,5C692.94,605.63,714,601,734,590.43c16.29-8.59,30.72-19.87,45.58-30.58,20.18-14.53,41.39-27.33,65.2-35.2a44.81,44.81,0,0,1,11.68-2.53c2.67-.14,4.68.91,5.12,3.65s-1.28,4.47-3.89,4.86c-18.91,2.86-34.94,12.49-51.13,21.71-13.78,7.85-26.18,17.73-38.95,27-17.44,12.73-35.78,23.81-56.89,29.41-23.21,6.16-45.92,2.39-68.38-4.14a148.29,148.29,0,0,1-16.89-6.06c-3.11-1.33-5.37-1-8.25.62-28.12,15.45-58,25.23-90.3,25.62-21.58.26-41.19-6.84-58.35-20.21-2-1.53-3.55-3.24-2.47-5.91s3.4-3,5.86-2.57c21.31,3.47,41.73-.71,61.91-7.09,14-4.42,27.93-9,42.93-7.81,4.14.33,8.27.69,12.45,1,.26-2.11-1.48-2.18-2.44-2.8-8.83-5.67-17.95-10.91-26.46-17-4.77-3.41-8.51-2.84-12.62.29a230.5,230.5,0,0,1-20.14,13.88c-33.4,20.25-68.16,19.76-103.75,7a113.55,113.55,0,0,1-19.07-8.64c-1.87-1.09-3.17-2.58-2.61-4.88a3.89,3.89,0,0,1,4.41-3.22c23.56,1.89,45.25-6.12,67.24-12.62,12.1-3.57,23.53-9.34,36.3-10.71a99.62,99.62,0,0,1,23.94.59c-9.57-7.85-19.66-12.38-30.19-16-13.74-4.69-27.93-7.47-42.32-9.36a14.59,14.59,0,0,0-9.48,2c-14.65,8.12-27.48,18.76-40.63,29-10.79,8.37-21.73,16.54-32.5,24.94-14.62,11.4-31.43,15.58-49.59,15.1a150.61,150.61,0,0,1-39.78-6.55c-2.68-.81-5.47-1.69-5.28-5,.2-3.65,3.19-3.86,6.18-4.35,12-2,22.77-7.3,33.55-12.51a375.76,375.76,0,0,0,46.3-26.58c11-7.4,22.5-13.57,35.14-17.59.59-.19,1.35-.15,1.51-1.26-14-.49-27.92.35-41.81,1.39-12.45.93-24.85,2.52-37.28,3.66-4.33.4-7.61,1.76-10.42,5.52q-11.69,15.58-24.23,30.53c-19.78,23.65-46.06,36-75.48,42.76-2.76.63-5.57.52-6.61-2.75-1-3,1.16-4.52,3.52-5.77,7.52-4,13-10.29,18.58-16.49,15.53-17.42,30.64-35.28,52.84-46.07-4.31-.59-6-.45-8.47,1.21-29.56,19.5-62.76,29.5-96.91,36.86-11.21,2.42-22.61,4-33.92,5.89a31.19,31.19,0,0,1-3.49.3,4.13,4.13,0,0,1-4.47-2.47c-.94-2.13-.24-3.91,1.45-5.33a66.94,66.94,0,0,1,13.94-8.72C175.82,546,198.85,539.38,222,533.2a692.28,692.28,0,0,1,76.07-16.31c1.47-.22,2.9-.66,5.39-1.23-12.6-3.51-24.28-6.58-35.72-10.49-29.46-10.08-57.56-22.79-82.09-42.39-3.76-3-7.27-6.35-10.81-9.64-1.67-1.55-2.75-3.43-1.4-5.77s3.35-2.54,5.65-2c37.56,8.24,74.85,17.43,110.2,33a108,108,0,0,1,39.77,30.35c2,2.44,3.91,3.22,7.19,2.78,9.19-1.21,18.46-1.85,28.3-3.37-.47-.16-.93-.33-1.4-.47-32.61-10.08-56-31.86-75-59.19-11.67-16.83-23-33.94-36.42-49.45-5.28-6.09-10-12.95-18.26-15.79a3.61,3.61,0,0,1-2.3-4.48,4.34,4.34,0,0,1,4.27-3.55,25.27,25.27,0,0,1,9.78,1.69c16,5.26,30.14,14.05,44.17,23a736.12,736.12,0,0,1,82.14,60.21c11.12,9.47,19.42,21.48,29.07,32.25,8.63,9.64,17,17.5,31.42,15.53,6.45-.89,13.24.67,20,1.13-.22-1.71-1.78-1.8-2.78-2.37a144.23,144.23,0,0,1-51.62-49.08c-14.1-22.46-30.13-43.15-51.69-59a97.77,97.77,0,0,0-18.83-11.24c-2.52-1.1-4.6-2.47-3.92-5.48s3.16-3.58,5.85-3.64c13.29-.28,25.64,3.59,37.63,8.75,28.3,12.18,51.2,31.52,71.15,54.55,18.34,21.18,33.82,44.57,50.83,66.78,4.06,5.3,8.38,9.24,15.19,11,14.32,3.75,26.91,11.29,38.82,20l1,.49-.27-1.11C533.29,522.09,524.53,505,518,486.7c-5.67-15.9-7.88-32.63-12.23-48.83-3.67-13.67-7.83-27.17-15-39.51-1.08-1.86-1.57-3.7-.17-5.58,1.57-2.09,3.75-2,5.9-1.32,6.18,1.91,11.34,5.56,16,9.91,18,16.77,30.19,37.42,40.32,59.54,7.44,16.27,10,33.67,12.92,51.07,3.07,18.3,9.11,35.74,17,52.54.84,1.81,1.67,3.56,3.54,4.67,14.47,8.56,29.15,16.71,45.08,22.33.61.45,1.25.88,1.94.22A13.12,13.12,0,0,0,632.32,590.49ZM451.81,497l.14.71.49-.27-.72-.36c-.5-.52-1-1.05-1.48-1.58a8,8,0,0,0-.59-.81c-12.06-12.07-21.13-26.51-31.56-39.88-1.35-1.73-2.14-3.67,0-5.21s3.73-.36,5.05,1.46,2.51,3.52,3.85,5.22c9,11.34,16.5,23.86,27.15,33.81,5.42,5.06,11.11,10,18.56,12l.38.69.4-.25-.7-.51a13.48,13.48,0,0,0-1.1-2.18c-10.94-14.67-21.58-29.57-32.93-43.91-19.1-24.11-41.39-44.6-69.26-58.37-6.08-3-12.29-5.82-19.1-7.07,23.08,17.32,40.11,39.67,55.38,63.71a122.31,122.31,0,0,0,43.87,42A1.66,1.66,0,0,0,451.81,497ZM293.34,534.63C269.21,545.51,253,565.37,236,584.91c17.45-3.12,50-26.87,54.45-39.53-2.18-.38-3.23,1.41-4.59,2.42C278.88,553,272,558.21,265.1,563.4c-1.29,1-2.78,2.49-4.21.41-1.33-1.92.37-3,1.68-4,1-.83,2.15-1.57,3.2-2.39,9.45-7.31,19.36-14,28.18-22.16l.45-.89ZM606.79,502c-.13-.38-.19-.91-.77-.58a5.47,5.47,0,0,0,.32,1.05c.69,1.68,1.3,3.4,2.09,5,4.53,9.42,9.13,18.81,13.64,28.24.8,1.67,2.69,3.8.07,5.15-2.88,1.49-3.58-1.35-4.49-3.2-3-6.1-5.91-12.26-9-18.34-.75-1.5-.91-3.57-3-4.21-.23.33-.58.62-.53.79,4.18,15.22,8.61,30.36,16,44.4,6,11.39,12.78,22.19,24.12,29.17l1,.34c-.17-.28-.33-.56-.49-.85-3.42-5.1-6.87-10.19-10.24-15.32-.9-1.37-2.13-3.21-.36-4.43,2.19-1.5,3.2.68,4.12,2.22a86,86,0,0,0,10,14.24c.89-1.72.28-3.06-.27-4.44-6.48-16.22-12.92-32.47-21.36-47.8C621.63,522.42,615.37,511.44,606.79,502Zm-306.27,3.36c.53.19,1.05.39,1.58.54.07,0,.21-.2.32-.3l-1.54-.63c-1.57-1.62-3.76-2-5.72-2.84q-21.89-9-44.5-16.09c-1.72-.54-4-1-3.48-3.42.64-2.72,3-2,5-1.51.8.19,1.58.51,2.37.76a503.57,503.57,0,0,1,50.88,18.93c1.17.51,2.37,1.9,4,.76-13.63-14.27-90.12-43.14-114.33-43.15.61,2,2.45,2.64,3.87,3.66,17.14,12.29,35.91,21.51,55.53,29C269.48,496.87,284.63,502.32,300.52,505.38Zm234.27,55.75a15.36,15.36,0,0,0-2.94-.14,254.87,254.87,0,0,0-48,11.12c-1.9.65-4,1.77-5-1-.81-2.43,1.33-3.17,3-3.74,4.57-1.51,9.16-3,13.8-4.28,13.77-3.85,27.84-6.24,41.94-8.77-9.93-2.82-20.14-3.79-30-1.41-24.26,5.84-47.16,16.43-71.88,21,8.2,1.72,16.34,3,24.59,1,1.88-.45,3.79-1.06,4.35,1.54s-1.53,3.19-3.31,3.49c-3.86.66-7.77,1.05-12.27,1.63,17.33,3.54,34,3.33,50.35-1.64a96.23,96.23,0,0,0,35.23-18.85c.24-.13,1,.07.36-.6Zm-28.5-153.52-1.22-.79a1,1,0,0,0,.5,1.45c4.29,12.75,8.83,25.46,11.2,38.74,5.7,31.88,17.11,61.43,35.15,88.37.93,1.39,1.43,3.35,4.15,3.86-1.26-3.26-2.47-6.12-3.48-9-8.43-24.71-16.7-49.47-27.93-73.11-.92-1.94-1.62-3.95.82-5.14,2.84-1.39,3.82.92,4.7,2.92,7.94,17.94,15.87,35.88,21.55,54.73A170.86,170.86,0,0,0,561.17,535c1-1.8.24-3,0-4.24-1.53-6.81-3.59-13.56-4.4-20.46-2.46-20.89-8-40.75-18.15-59.24C529.82,435.08,520.18,419.76,506.29,407.61ZM397.53,503.36c.43.56,1.18.92,1.6.44.59-.68-.44-.88-.76-1.29-2.66-3-5.19-6.07-8-8.89-7.87-7.91-13.73-17.59-22.15-25-22.78-20-47.44-37.56-72.64-54.36-11.74-7.83-23.54-15.61-36.31-21.75l-1.13-.2.49.95c15.49,18.93,28.56,39.62,43.18,59.17,13.53,18.08,30,33,50.9,42.18,8.93,3.93,18.07,7.44,28.09,7.44-.15.67.3.8.79.79.17,0,.34-.27.52-.42l-1.36-.32c-.32-.35-.57-.82-1-1-17.9-10.14-34-22.79-49.45-36.22-5.16-4.47-10.09-9.2-15.1-13.83-1.3-1.21-2.34-2.71-.84-4.29s3-.73,4.36.51l2.2,2a391.74,391.74,0,0,0,43.52,35.84C374.85,492.33,385.35,499.38,397.53,503.36Zm23.64,27c-11.3,4.42-22.12,9.67-31.25,17.4-10.75,9.1-23,15.2-35.83,20.38q-3.24,1.3-6.55,2.43a1.93,1.93,0,0,1-2.7-1.43,2,2,0,0,1,1.16-2.47c1.21-.55,2.46-1,3.7-1.49,11.44-4.59,23-9.08,32.6-17a135.61,135.61,0,0,1,24.06-16c7.14-3.69,14.4-7.13,21.61-10.68-16.71,2.24-32.44,7.17-46.57,16.48-21.57,14.21-43.74,27.33-67.5,37.6-2.07.89-4.48,1.19-6.29,3.15a111.14,111.14,0,0,0,31.83,2.21,62.16,62.16,0,0,0,32-11.41C388.69,557.28,404.88,543.73,421.17,530.35Zm67.41,76.14c16.43,8.76,34,11.41,52.1,9.15,19.88-2.49,45.36-10.12,51.81-15-4.75,1.08-8.61,2-12.47,2.83-17.09,3.78-34.25,7-51.87,6.54-1.75,0-4.25.36-4.09-2.31.14-2.29,2.48-1.73,4-1.69,15.09.39,29.85-2.15,44.55-5.08,4.89-1,9.75-2.16,14.59-3.37,4.63-1.16,9.22-2.48,13.84-3.72-16.25-3.72-32.39-6.09-48.56-1.42C531.53,598.5,510.87,606,488.58,606.49Zm-239.69-70c-14.31-.68-74.42,17.39-83,24.59A254.09,254.09,0,0,0,248.89,536.49Zm1.29-.87c-.14-.11-.27-.3-.38-.28a4.46,4.46,0,0,0-.83.27c.12.1.25.31.34.29A5.51,5.51,0,0,0,250.18,535.62Zm306.1,5.26c.11-.1.29-.19.29-.29s-.16-.22-.25-.33l-.3.46Z"/><path class="cls-2" d="M300.88,505l1.54.63c-.11.1-.25.32-.32.3-.53-.15-1.05-.35-1.58-.54Z"/><path class="cls-2" d="M398.37,502.51c.32.41,1.35.61.76,1.29-.42.48-1.17.12-1.6-.44Z"/><path class="cls-2" d="M380.75,502.11l1.36.32c-.18.15-.35.41-.52.42-.49,0-.94-.12-.79-.79Z"/><path class="cls-2" d="M505.57,408.27a1,1,0,0,1-.5-1.45l1.22.79Q505.95,408,505.57,408.27Z"/><path class="cls-2" d="M632.32,590.49a13.12,13.12,0,0,1,.95,1.25c-.69.66-1.33.23-1.94-.22Z"/><path class="cls-2" d="M250.18,535.62a5.51,5.51,0,0,1-.87.28c-.09,0-.22-.19-.34-.29a4.46,4.46,0,0,1,.83-.27C249.91,535.32,250,535.51,250.18,535.62Z"/><path class="cls-2" d="M450.24,495.54c.49.53,1,1.06,1.48,1.58l.09-.08a1.66,1.66,0,0,1-2.18-.79C449.82,496,450,495.77,450.24,495.54Z"/><path class="cls-2" d="M451.72,497.12l.72.36-.49.27c-.05-.23-.09-.47-.14-.71Z"/><path class="cls-2" d="M606.34,502.49a5.47,5.47,0,0,1-.32-1.05c.58-.33.64.2.77.58C606.65,502.18,606.5,502.34,606.34,502.49Z"/><path class="cls-2" d="M258.63,393.27l-.49-.95,1.13.19A3.85,3.85,0,0,1,258.63,393.27Z"/><path class="cls-2" d="M472.77,502.08l.7.51-.4.25-.39-.68Z"/><path class="cls-2" d="M645.79,589c.16.29.32.57.49.85l-1-.33C645.42,589.35,645.6,589.18,645.79,589Z"/><path class="cls-2" d="M534.79,561.13l.27-.67c.67.67-.12.47-.36.6Z"/><path class="cls-2" d="M556.28,540.88l-.26-.16.3-.46c.09.11.26.22.25.33S556.39,540.78,556.28,540.88Z"/><path class="cls-2" d="M543.36,538.6l.27,1.11-1-.49A2.94,2.94,0,0,1,543.36,538.6Z"/><path class="cls-2" d="M293.34,534.63l1.06-.28-.45.89C293.74,535.05,293.54,534.84,293.34,534.63Z"/></svg>